<svg xmlns="http://www.w3.org/2000/svg" xmlns:xlink="http://www.w3.org/1999/xlink" viewBox="0 0 432.41 218.2"><defs><style>.cls-1{mask:url(#mask);filter:url(#luminosity-noclip-8);}.cls-10,.cls-12,.cls-14,.cls-18,.cls-19,.cls-2,.cls-33,.cls-38,.cls-4,.cls-40,.cls-41,.cls-6,.cls-8{mix-blend-mode:multiply;}.cls-2{fill:url(#linear-gradient);}.cls-3{mask:url(#mask-2);filter:url(#luminosity-noclip-13);}.cls-4{fill:url(#linear-gradient-2);}.cls-5{mask:url(#mask-3);filter:url(#luminosity-noclip-14);}.cls-6{fill:url(#linear-gradient-3);}.cls-7{mask:url(#mask-4);filter:url(#luminosity-noclip-9);}.cls-8{fill:url(#linear-gradient-4);}.cls-9{mask:url(#mask-5);filter:url(#luminosity-noclip-10);}.cls-10{fill:url(#linear-gradient-5);}.cls-11{mask:url(#mask-6);filter:url(#luminosity-noclip-11);}.cls-12{fill:url(#linear-gradient-6);}.cls-13{mask:url(#mask-7);filter:url(#luminosity-noclip-12);}.cls-14{fill:url(#linear-gradient-7);}.cls-15{isolation:isolate;}.cls-16,.cls-20,.cls-39,.cls-41,.cls-46{fill:none;stroke-miterlimit:10;}.cls-16{stroke:#fbaa19;}.cls-17,.cls-34,.cls-42,.cls-44{fill:#fff;}.cls-17,.cls-33{opacity:0.4;}.cls-18{fill:#d2d3d4;}.cls-19{fill:#bdbec0;}.cls-20{stroke:#fdba32;}.cls-21{fill:#fecb67;}.cls-22{mask:url(#mask-8);}.cls-23{fill:url(#linear-gradient-8);}.cls-24{mask:url(#mask-9);}.cls-25{fill:url(#linear-gradient-9);}.cls-26{mask:url(#mask-10);}.cls-27{fill:url(#linear-gradient-10);}.cls-28{mask:url(#mask-11);}.cls-29{fill:url(#linear-gradient-11);}.cls-30{mask:url(#mask-12);}.cls-31{fill:url(#linear-gradient-12);}.cls-32{mask:url(#mask-13);}.cls-33{fill:url(#linear-gradient-13);}.cls-34{opacity:0.3;}.cls-35{mask:url(#mask-14);}.cls-36{fill:url(#linear-gradient-14);}.cls-37{fill:#bc802b;}.cls-38{fill:#939598;}.cls-39{stroke:#bc802b;}.cls-40{fill:#a8aaad;}.cls-41{stroke:#d2d3d4;}.cls-42{opacity:0.8;}.cls-43{fill:#010101;}.cls-45{fill:#da7427;}.cls-46{stroke:#da7427;}.cls-47{filter:url(#luminosity-noclip-7);}.cls-48{filter:url(#luminosity-noclip-6);}.cls-49{filter:url(#luminosity-noclip-5);}.cls-50{filter:url(#luminosity-noclip-4);}.cls-51{filter:url(#luminosity-noclip-3);}.cls-52{filter:url(#luminosity-noclip-2);}.cls-53{filter:url(#luminosity-noclip);}</style><filter id="luminosity-noclip" x="172.47" y="-8490.23" width="150.93" height="32766" filterUnits="userSpaceOnUse" color-interpolation-filters="sRGB"><feFlood flood-color="#fff" result="bg"/><feBlend in="SourceGraphic" in2="bg"/></filter><mask id="mask" x="172.47" y="-8490.23" width="150.93" height="32766" maskUnits="userSpaceOnUse"><g class="cls-53"/></mask><linearGradient id="linear-gradient" x1="241.76" y1="91.22" x2="248.14" y2="112.36" gradientUnits="userSpaceOnUse"><stop offset="0"/><stop offset="0.09" stop-color="#0c0c0c"/><stop offset="0.24" stop-color="#2b2b2b"/><stop offset="0.45" stop-color="#5e5e5e"/><stop offset="0.71" stop-color="#a5a5a5"/><stop offset="0.99" stop-color="#fdfdfd"/><stop offset="1" stop-color="#fff"/></linearGradient><filter id="luminosity-noclip-2" x="247.55" y="-8490.23" width="77.51" height="32766" filterUnits="userSpaceOnUse" color-interpolation-filters="sRGB"><feFlood flood-color="#fff" result="bg"/><feBlend in="SourceGraphic" in2="bg"/></filter><mask id="mask-2" x="247.55" y="-8490.23" width="77.51" height="32766" maskUnits="userSpaceOnUse"><g class="cls-52"/></mask><linearGradient id="linear-gradient-2" x1="276.73" y1="161.4" x2="292.19" y2="186.24" gradientUnits="userSpaceOnUse"><stop offset="0" stop-color="#fff"/><stop offset="0.04" stop-color="#f2f2f2"/><stop offset="0.25" stop-color="#a9a9a9"/><stop offset="0.44" stop-color="#6d6d6d"/><stop offset="0.62" stop-color="#3e3e3e"/><stop offset="0.78" stop-color="#1c1c1c"/><stop offset="0.91" stop-color="#070707"/><stop offset="1"/></linearGradient><filter id="luminosity-noclip-3" x="246.58" y="-8490.23" width="75.71" height="32766" filterUnits="userSpaceOnUse" color-interpolation-filters="sRGB"><feFlood flood-color="#fff" result="bg"/><feBlend in="SourceGraphic" in2="bg"/></filter><mask id="mask-3" x="246.58" y="-8490.23" width="75.71" height="32766" maskUnits="userSpaceOnUse"><g class="cls-51"/></mask><linearGradient id="linear-gradient-3" x1="284.44" y1="160.02" x2="284.44" y2="134.14" gradientUnits="userSpaceOnUse"><stop offset="0"/><stop offset="0.09" stop-color="#1e1e1e"/><stop offset="0.35" stop-color="#6d6d6d"/><stop offset="0.58" stop-color="#acacac"/><stop offset="0.77" stop-color="#d9d9d9"/><stop offset="0.91" stop-color="#f5f5f5"/><stop offset="1" stop-color="#fff"/></linearGradient><filter id="luminosity-noclip-4" x="68.14" y="-8490.23" width="101.99" height="32766" filterUnits="userSpaceOnUse" color-interpolation-filters="sRGB"><feFlood flood-color="#fff" result="bg"/><feBlend in="SourceGraphic" in2="bg"/></filter><mask id="mask-4" x="68.14" y="-8490.23" width="101.99" height="32766" maskUnits="userSpaceOnUse"><g class="cls-50"/></mask><linearGradient id="linear-gradient-4" x1="98.71" y1="136.16" x2="129.06" y2="174.82" gradientUnits="userSpaceOnUse"><stop offset="0" stop-color="#fff"/><stop offset="0.1" stop-color="#ededed"/><stop offset="0.31" stop-color="#bebebe"/><stop offset="0.6" stop-color="#737373"/><stop offset="0.96" stop-color="#0d0d0d"/><stop offset="1"/></linearGradient><filter id="luminosity-noclip-5" x="306.1" y="-8490.23" width="60.18" height="32766" filterUnits="userSpaceOnUse" color-interpolation-filters="sRGB"><feFlood flood-color="#fff" result="bg"/><feBlend in="SourceGraphic" in2="bg"/></filter><mask id="mask-5" x="306.1" y="-8490.23" width="60.18" height="32766" maskUnits="userSpaceOnUse"><g class="cls-49"/></mask><linearGradient id="linear-gradient-5" x1="336.19" y1="120.17" x2="336.19" y2="111.53" gradientUnits="userSpaceOnUse"><stop offset="0"/><stop offset="0.13" stop-color="#1a1a1a"/><stop offset="0.4" stop-color="#5c5c5c"/><stop offset="0.79" stop-color="#c6c6c6"/><stop offset="1" stop-color="#fff"/></linearGradient><filter id="luminosity-noclip-6" x="175.51" y="-8490.23" width="75.1" height="32766" filterUnits="userSpaceOnUse" color-interpolation-filters="sRGB"><feFlood flood-color="#fff" result="bg"/><feBlend in="SourceGraphic" in2="bg"/></filter><mask id="mask-6" x="175.51" y="-8490.23" width="75.1" height="32766" maskUnits="userSpaceOnUse"><g class="cls-48"/></mask><linearGradient id="linear-gradient-6" x1="215.24" y1="188.9" x2="204.12" y2="165.97" gradientUnits="userSpaceOnUse"><stop offset="0"/><stop offset="0.18" stop-color="#030303"/><stop offset="0.32" stop-color="#0c0c0c"/><stop offset="0.43" stop-color="#1c1c1c"/><stop offset="0.54" stop-color="#333"/><stop offset="0.64" stop-color="#505050"/><stop offset="0.74" stop-color="#737373"/><stop offset="0.83" stop-color="#9e9e9e"/><stop offset="0.92" stop-color="#cdcdcd"/><stop offset="1" stop-color="#fff"/></linearGradient><filter id="luminosity-noclip-7" x="312.39" y="-8490.23" width="58.78" height="32766" filterUnits="userSpaceOnUse" color-interpolation-filters="sRGB"><feFlood flood-color="#fff" result="bg"/><feBlend in="SourceGraphic" in2="bg"/></filter><mask id="mask-7" x="312.39" y="-8490.23" width="58.78" height="32766" maskUnits="userSpaceOnUse"><g class="cls-47"/></mask><linearGradient id="linear-gradient-7" x1="343.97" y1="146.47" x2="335.38" y2="130.33" gradientUnits="userSpaceOnUse"><stop offset="0.27"/><stop offset="0.3" stop-color="#0a0a0a"/><stop offset="0.79" stop-color="#b9b9b9"/><stop offset="1" stop-color="#fff"/></linearGradient><filter id="luminosity-noclip-8" x="172.47" y="103.22" width="150.93" height="16.48" filterUnits="userSpaceOnUse" color-interpolation-filters="sRGB"><feFlood flood-color="#fff" result="bg"/><feBlend in="SourceGraphic" in2="bg"/></filter><mask id="mask-8" x="172.47" y="103.22" width="150.93" height="16.48" maskUnits="userSpaceOnUse"><g class="cls-1"><path class="cls-2" d="M191.57,119.7c46.9-13.41,96.65-14,131.83-11.78L301.55,105s-64.84-7.62-129.07,8.26a7.17,7.17,0,0,1,0,2.17C177.53,117,184.24,118.38,191.57,119.7Z"/></g></mask><linearGradient id="linear-gradient-8" x1="241.76" y1="91.22" x2="248.14" y2="112.36" gradientUnits="userSpaceOnUse"><stop offset="0" stop-color="#fff"/><stop offset="1" stop-color="#fff"/></linearGradient><filter id="luminosity-noclip-9" x="68.14" y="132.15" width="101.99" height="59.85" filterUnits="userSpaceOnUse" color-interpolation-filters="sRGB"><feFlood flood-color="#fff" result="bg"/><feBlend in="SourceGraphic" in2="bg"/></filter><mask id="mask-9" x="68.14" y="132.15" width="101.99" height="59.85" maskUnits="userSpaceOnUse"><g class="cls-7"><path class="cls-8" d="M163.64,139.68c2.21-.56,4.36-1.05,6.49-1.51-13.43-3.89-27.85-6.71-39.83-5.88-29.31,2-57,45.33-62.16,53.9A60.75,60.75,0,0,0,80.62,192C115.82,156.63,163.64,139.68,163.64,139.68Z"/></g></mask><linearGradient id="linear-gradient-9" x1="98.71" y1="136.16" x2="129.06" y2="174.82" xlink:href="#linear-gradient-8"/><filter id="luminosity-noclip-10" x="306.1" y="111.53" width="60.18" height="8.64" filterUnits="userSpaceOnUse" color-interpolation-filters="sRGB"><feFlood flood-color="#fff" result="bg"/><feBlend in="SourceGraphic" in2="bg"/></filter><mask id="mask-10" x="306.1" y="111.53" width="60.18" height="8.64" maskUnits="userSpaceOnUse"><g class="cls-9"><path class="cls-10" d="M366.28,114.8c-1.95-.67-7-2-18.77-3.17a22.39,22.39,0,0,0-6.12.25c-10.71,1.92-16.31.38-35.29.38,0,0,19.59.74,34.43,7.91A146.05,146.05,0,0,1,366.28,114.8Z"/></g></mask><linearGradient id="linear-gradient-10" x1="336.19" y1="120.17" x2="336.19" y2="111.53" xlink:href="#linear-gradient-8"/><filter id="luminosity-noclip-11" x="175.51" y="160.11" width="75.1" height="38.06" filterUnits="userSpaceOnUse" color-interpolation-filters="sRGB"><feFlood flood-color="#fff" result="bg"/><feBlend in="SourceGraphic" in2="bg"/></filter><mask id="mask-11" x="175.51" y="160.11" width="75.1" height="38.06" maskUnits="userSpaceOnUse"><g class="cls-11"><path class="cls-12" d="M246.47,183.17a26.26,26.26,0,0,0,4.15-5.52c-2-15.1-13.6-20-32.83-16.39-18.73,3.55-34.7,15.36-42.28,33a77.29,77.29,0,0,0,19.14,3.91v-5l9.4-18.71,12.64-8.38,16.29-2,8.67,5.3,4.82,7.31Z"/></g></mask><linearGradient id="linear-gradient-11" x1="215.24" y1="188.9" x2="204.12" y2="165.97" gradientUnits="userSpaceOnUse"><stop offset="0" stop-color="#fff"/><stop offset="0.89" stop-color="#fff"/><stop offset="1" stop-color="#fff"/></linearGradient><filter id="luminosity-noclip-12" x="312.39" y="124.34" width="58.78" height="33.8" filterUnits="userSpaceOnUse" color-interpolation-filters="sRGB"><feFlood flood-color="#fff" result="bg"/><feBlend in="SourceGraphic" in2="bg"/></filter><mask id="mask-12" x="312.39" y="124.34" width="58.78" height="33.8" maskUnits="userSpaceOnUse"><g class="cls-13"><path class="cls-14" d="M353.27,125.09c-13.58,2.71-30.2,13.65-40.88,28.84a63.81,63.81,0,0,0,22.77,4.21c-.09-.6-.15-1-.15-1l3.78-13.49,10.06-11.75,14-4.35,8.29,3.21-.22-.44c-1.89-3.75-6.77-6.27-12.09-6A39.91,39.91,0,0,0,353.27,125.09Z"/></g></mask><linearGradient id="linear-gradient-12" x1="343.97" y1="146.47" x2="335.38" y2="130.33" gradientUnits="userSpaceOnUse"><stop offset="0.27" stop-color="#fff"/><stop offset="1" stop-color="#fff"/></linearGradient><filter id="luminosity-noclip-13" x="247.55" y="161.26" width="77.51" height="30.92" filterUnits="userSpaceOnUse" color-interpolation-filters="sRGB"><feFlood flood-color="#fff" result="bg"/><feBlend in="SourceGraphic" in2="bg"/></filter><mask id="mask-13" x="247.55" y="161.26" width="77.51" height="30.92" maskUnits="userSpaceOnUse"><g class="cls-3"><path class="cls-4" d="M298.51,166.12l-47.46,22.23a6.12,6.12,0,0,0-3.5,3.83c.41-1.59,58.87-23.46,58.87-23.46l18.52-2,.13-5.36A54.44,54.44,0,0,0,298.51,166.12Z"/></g></mask><linearGradient id="linear-gradient-13" x1="276.73" y1="161.4" x2="292.19" y2="186.24" gradientUnits="userSpaceOnUse"><stop offset="0" stop-color="#010101"/><stop offset="1" stop-color="#010101"/></linearGradient><filter id="luminosity-noclip-14" x="246.58" y="134.14" width="75.71" height="25.88" filterUnits="userSpaceOnUse" color-interpolation-filters="sRGB"><feFlood flood-color="#fff" result="bg"/><feBlend in="SourceGraphic" in2="bg"/></filter><mask id="mask-14" x="246.58" y="134.14" width="75.71" height="25.88" maskUnits="userSpaceOnUse"><g class="cls-5"><path class="cls-6" d="M260.21,160c3.45-.74,32.12-12.45,50.1-19.86a94.77,94.77,0,0,0,12-6c-54.81,18.79-54.81,12.47-75.71,23.78C252.23,159.08,258.52,160.32,260.21,160Z"/></g></mask><linearGradient id="linear-gradient-14" x1="284.44" y1="160.02" x2="284.44" y2="134.14" xlink:href="#linear-gradient-8"/></defs><g class="cls-15"><g id="Layer_2" data-name="Layer 2"><g id="Layer_1-2" data-name="Layer 1"><path class="cls-16" d="M244.49,195.57l92-28c-.5-3.79-1.52-10.44-1.52-10.44l3.78-13.49,10.06-11.75,14-4.35,8.29,3.21,5.16,6.7,1.85,7.84.31-.8h0a21.15,21.15,0,0,0-1.95-19.22l-5.06-8.16a9,9,0,0,0-6.54-3.77l-63.39-8.33s-64.84-7.63-129.07,8.25c2.53,17.22-54.58,22.07-54.58,22.07A168.12,168.12,0,0,0,90.29,146.7c-14.23,7.44-27.24,23.05-27,24.87s2.17,8.71,2.17,8.71l-5.29,8.44a3.2,3.2,0,0,0-.43,2.47h0c10.42,20.81,83.09,28,97.28,26.25l37.63-7.13V193.2l9.4-18.71,12.64-8.38,16.29-2,8.67,5.3,4.82,7.31V190.5Z"/><path class="cls-17" d="M117.9,135.37A168.12,168.12,0,0,0,90.29,146.7c-14.23,7.44-27.24,23.05-27,24.87s2.17,8.71,2.17,8.71,0,5.92,2,7.34c-1.19-3,57.64-53.05,57.64-53.05C120.72,135.13,117.9,135.37,117.9,135.37Z"/><path class="cls-18" d="M326.33,148.37c-25.81,9.61-39.76,22.47-79.86,37.06v5.07l-2,5.07,92-28c-.5-3.79-1.52-10.44-1.52-10.44S324.5,154.71,326.33,148.37Zm-4.19,21.43-74.59,22.38c.41-1.59,58.87-23.46,58.87-23.46l18.52-2A3.55,3.55,0,0,1,322.14,169.8ZM62.81,188.45a20.59,20.59,0,0,0-3.13,1.77,3.5,3.5,0,0,0,.06,1c6.81,13.61,40.23,21.4,66.53,24.67h0l.84.1,1.52.18,1.12.13,1.56.17.87.09q2.9.3,5.61.52l.9.08.28,0h0c8.19.63,14.74.71,18.06.29l37.63-7.13V200.9A423.06,423.06,0,0,1,133,211.3C131.12,211,71.7,201.67,62.81,188.45Z"/><path class="cls-19" d="M376.54,125.31l-4.49-7.24c-.47,4.07-1.68,8-4.66,11.26l3.78,1.46,5.16,6.7,1.85,7.84.31-.8A21.15,21.15,0,0,0,376.54,125.31Z"/><path class="cls-20" d="M103.22,196.5l1.23,0c40.65-24.9,108.88-41.85,108.88-41.85s-50.49-24.65-83-22.39c-29.31,2-57,45.33-62.16,53.9C69.69,187.36,84.78,195.84,103.22,196.5Z"/><path class="cls-21" d="M301.55,105s-64.84-7.62-129.07,8.26a7.17,7.17,0,0,1,0,2.17c21.82,6.4,74.49,11.79,74.49,11.79s16.87-17.86,65.14-15.56c19.33.92,27.32-.43,30-1.32Z"/><g class="cls-22"><path class="cls-23" d="M191.57,119.7c46.9-13.41,96.65-14,131.83-11.78L301.55,105s-64.84-7.62-129.07,8.26a7.17,7.17,0,0,1,0,2.17C177.53,117,184.24,118.38,191.57,119.7Z"/></g><g class="cls-24"><path class="cls-25" d="M163.64,139.68c2.21-.56,4.36-1.05,6.49-1.51-13.43-3.89-27.85-6.71-39.83-5.88-29.31,2-57,45.33-62.16,53.9A60.75,60.75,0,0,0,80.62,192C115.82,156.63,163.64,139.68,163.64,139.68Z"/></g><g class="cls-26"><path class="cls-27" d="M366.28,114.8c-1.95-.67-7-2-18.77-3.17a22.39,22.39,0,0,0-6.12.25c-10.71,1.92-16.31.38-35.29.38,0,0,19.59.74,34.43,7.91A146.05,146.05,0,0,1,366.28,114.8Z"/></g><g class="cls-28"><path class="cls-29" d="M246.47,183.17a26.26,26.26,0,0,0,4.15-5.52c-2-15.1-13.6-20-32.83-16.39-18.73,3.55-34.7,15.36-42.28,33a77.29,77.29,0,0,0,19.14,3.91v-5l9.4-18.71,12.64-8.38,16.29-2,8.67,5.3,4.82,7.31Z"/></g><g class="cls-30"><path class="cls-31" d="M353.27,125.09c-13.58,2.71-30.2,13.65-40.88,28.84a63.81,63.81,0,0,0,22.77,4.21c-.09-.6-.15-1-.15-1l3.78-13.49,10.06-11.75,14-4.35,8.29,3.21-.22-.44c-1.89-3.75-6.77-6.27-12.09-6A39.91,39.91,0,0,0,353.27,125.09Z"/></g><g class="cls-32"><path class="cls-33" d="M298.51,166.12l-47.46,22.23a6.12,6.12,0,0,0-3.5,3.83c.41-1.59,58.87-23.46,58.87-23.46l18.52-2,.13-5.36A54.44,54.44,0,0,0,298.51,166.12Z"/></g><path class="cls-34" d="M306.42,168.72S248,190.59,247.55,192.18l74.59-22.38a3.55,3.55,0,0,0,2.8-3.05h0Z"/><g class="cls-35"><path class="cls-36" d="M260.21,160c3.45-.74,32.12-12.45,50.1-19.86a94.77,94.77,0,0,0,12-6c-54.81,18.79-54.81,12.47-75.71,23.78C252.23,159.08,258.52,160.32,260.21,160Z"/></g><path class="cls-37" d="M228.67,162.49h0c-20.66,0-36.95,16.09-36.95,43.28v5.09l4.54-.86v-5.82c0-24.2,15.29-39.08,34.15-39.08,8.47,0,15.34,7.62,15.34,16.33v3A28.15,28.15,0,0,1,243.23,196l3-.89.57-2.06a37.5,37.5,0,0,0,1.37-11l-.06-2.45C248.06,171.29,241.12,162.49,228.67,162.49Zm135.82-35.75h0c-17.45,0-35.06,14.9-29.75,41.41l3.21-1a32.31,32.31,0,0,1-.24-15.93c3.48-14.08,14-22.36,25.55-22.36,9.33,0,14.34,10.63,14.34,17.94l.89-2.3C377.7,136.23,373.56,127,364.49,126.74Z"/><path class="cls-38" d="M255.07,155.36s-.56.89,0,1.5,6,2.85,6,2.85,2.76,4,4.45,4.63,7.37-1.66,7.37-1.66L268.61,157s-8.12-3.14-9.5-2.95S255.31,154.49,255.07,155.36Z"/><path class="cls-39" d="M250.71,148.46l3,5.88s1.87,3.33,5.13,2.34,1.91-2.51,1.91-2.51l-5-6.37S250.59,147.35,250.71,148.46Z"/><path class="cls-40" d="M260.8,154.17l-5-6.37s-5.2-.45-5.08.66L252,151c5.1.46,6.63,2.07,8.49,4.91A1.15,1.15,0,0,0,260.8,154.17Z"/><path class="cls-16" d="M250.78,150.33s20.14,1.09,20.79.93,5-4.57,5-4.57-1-3-2.62-3.38-14.8-.93-14.8-.93S245.22,147.37,250.78,150.33Z"/><path class="cls-19" d="M250.66,149.48h-.94a2.93,2.93,0,0,0,1.06.86s20.14,1.09,20.79.93,5-4.57,5-4.57a9.83,9.83,0,0,0-.59-1.36C271.35,147.79,261.75,149.48,250.66,149.48Z"/><path class="cls-41" d="M274.07,143.34c-5,2.16-5.32,4.16-4.52,6.69a2.48,2.48,0,0,0,1.6,1.24h.42c.65-.17,5-4.57,5-4.57S275.64,143.78,274.07,143.34Z"/><path class="cls-42" d="M271.44,144.74a91.41,91.41,0,0,0-11.26,2,99.34,99.34,0,0,0-10,2.76h.51a101.6,101.6,0,0,0,10.18-.5l.18,0c3.34-.76,6.33-1.57,8.55-2.27A5.26,5.26,0,0,1,271.44,144.74Z"/><path class="cls-43" d="M132.71,184l44.53-9.55a160.78,160.78,0,0,0-17.78,11.27,11.09,11.09,0,0,1-5.89,2.09l-15.5,1a3.32,3.32,0,0,1-3-1.26Z"/><path class="cls-44" d="M164.05,179.44l2.75-2.71-2.18.46L163,178.82A22.74,22.74,0,0,1,149,184.75l-4.16.35a3.94,3.94,0,0,1-3.31-1.2l-1.25-1.49-1.36.29,1.47,1.75a5.37,5.37,0,0,0,4.08,1.68,4.52,4.52,0,0,0,.52,0l4.16-.35A24.27,24.27,0,0,0,164.05,179.44Z"/><path class="cls-43" d="M74.67,168.51,78,165.13l5.43-13.07-7.63,7.68a9.91,9.91,0,0,0-2.32,8.58h0A.76.76,0,0,0,74.67,168.51Z"/><path class="cls-44" d="M81.45,156.8,82.2,155c-1.38,1.13-5.26,4.47-5.67,6.73-.26,1.39-.38,2.25-.43,2.73a.65.65,0,0,0,.47.65,1,1,0,0,0,.43.08,1.07,1.07,0,0,0,.56-.15l.63-.38.52-1.25-1.59,1c.06-.49.18-1.31.41-2.56C77.8,160.35,79.84,158.26,81.45,156.8Z"/><path class="cls-45" d="M47,120.92c-14.65.09-29.37.15-44.05.14C1.76,111.88,1.18,102.69.7,93.51-.38,66.43-.58,39.28,2.88,12.33l.07-.5H45.42V24.55H13.31l.5-.5V58.26l-.5-.5h30.4V70.32H13.31l.5-.5v39l-.5-.5H47.13c0,4.19-.05,8.43-.14,12.58Zm-.71-.71c-.09-3.83-.15-7.58-.15-11.37l.5.5H12.81v-40h30.4l-.5.5V58.26l.5.5H12.81V23.55H44.92l-.5.5V12.33l.5.5H3.38l.5-.5c3.46,27,3.25,54.1,2.18,81.18-.48,9-1,18-2.18,27.06l-.5-.5c14.3,0,28.56.05,42.9.14Z"/><path class="cls-45" d="M83.37,120.92c.41-25.95.37-54.5.27-80.55,0-6.65-.23-20.1-.35-26.75v-.34l.34-.09a87.16,87.16,0,0,1,15.83-2.43c11.42-1.17,23.12,1.7,29.38,12.17,4.55,7.4,5.84,16.09,5.62,24.55-.27,19.16-12.4,35.36-32.94,32.49a30.38,30.38,0,0,1-8.16-1.89l1.22-.87c-.31,3.61-.42,7.22-.45,10.84-.06,6.32-.23,15.43-.17,21.68l0,10.84v.32c-3.51.06-7,0-10.62,0Zm.7-.71c3.17,0,6.35,0,9.58,0l-.33.34,0-10.84c-.08-10.42.12-22.12-.62-32.52L92.62,76a20.32,20.32,0,0,0,8.9.36A30.27,30.27,0,0,0,120,66.63c6.19-6.76,7.92-17.1,7.83-27.09-.19-13.3-6.44-24.64-20.49-26.61A70.44,70.44,0,0,0,83.82,14l.34-.42c-.13,6.67-.32,20.05-.36,26.72-.07,25.76-.17,54.32.27,79.87Z"/><path class="cls-45" d="M94.06,65.52c.22-.11.13-.23.43-.21l.65,0c13.85-1.45,19.68-6.63,20.06-20.91.51-15.91-6.78-19.19-21.37-20.17,0,0,.33-.47.32-.47l-.09,41.79Zm-.82.57-.09-42.36v-.4l.33-.07a25.06,25.06,0,0,1,10.65-3.65c20.46-2.41,26.9,21.22,20.79,37.05a21.19,21.19,0,0,1-11.23,12.07,21.48,21.48,0,0,1-20.45-2.64Z"/><path class="cls-45" d="M140.45,47.61c8.26-8.74,24.29-12.06,33.71-3.18,9.13,9,9.51,22.74,9.87,34.67.66,15.2.25,32,2.89,46.6l-15.2.28-4.89.08c-.31-3.11-1.15-11.6-1.48-14.84l5.57,5.13h-.34l5-3.07c-3.7,7.79-11.85,14.62-21,14.85-21.22.69-27.59-25-21.59-41.51,3.29-9.55,12.47-18.77,23.09-18.8,4.81,0,9.46,1.77,14,2.71l-.57.57a1.33,1.33,0,0,0,.56-1.33c0-6.23-1.05-14.24-7.42-17.13-6.59-2.59-14.25.42-19.17,5l-.68-.74A23.36,23.36,0,0,1,152.19,52c13.91-3.36,18,6.4,17.87,18.44.09.35.63.78.95,1-6.64,1-11.82,5.62-17.25,8.58a18.2,18.2,0,0,0-9.54,10.56c-3.13,8.63-1.75,26.46,10.4,25.85,4.85-.39,8.59-3.8,11-8.21l1.65-3.13c2.18.06,6.71.1,8.92.16l.33,5,.62,9.81-5.39-5,9.13.16-5.2,5.92c-1.31-14.11-.08-28.35.2-42.14.33-8.43.9-18-2.34-25.88-4.92-13.37-22.72-12.47-32.38-4.87l-.68-.74Z"/><path class="cls-45" d="M169.88,81.25a21.57,21.57,0,0,1-2.44.65c-8.34,1.66-16.25,4.92-16.13,14.42.12,4,.94,10.24,5.06,9.87,5.3-.74,7.56-7.61,7.56-12.34.11-1.76-.1-2.82,1.11-4.79,1.54-2.49,3-4.63,4.84-7.81Zm.71-.7a3.65,3.65,0,0,1,2.91.85c2.86,2.34,2.93,6.45,3,10a28.25,28.25,0,0,1-2.72,14.33c-8.79,18.47-33.06,14.72-31.53-7,.85-16.13,14-21.77,28.33-18.17Z"/><path class="cls-45" d="M223.71,55.29a1.14,1.14,0,0,1-.71,0,9.3,9.3,0,0,0-1.95-.36c-5.72-.74-10,4.1-12,9-2.47,5.84-2.79,12.31-2.71,18.57-.05,11.26.11,27.13.16,38.52-3.64,0-7.28,0-10.92.09-.08-6.66-.17-13.32-.34-20-.29-11.21-.8-27.47-1.14-38.85-.23-7.26-.5-14.53-1-21.77,4.52-.12,9.18-.1,13.71-.14l.07,2.42c.15,5.08.28,10.17.33,15.25l-2.45-2.39h.46l-2.37,1.87c2-8.18,7.56-17.86,17-18.15A11.38,11.38,0,0,1,225,40.55c-.18,4.53-.84,10.23-1.3,14.74Zm-.59-.81c-.36-4.48-1-8.61-1.24-12.92l1,1.45c-3.83-1-7.72,1.23-10.11,4.25-3.08,3.71-4.58,8.56-5.59,13.26l-4.76,0-.08-2.42c-.18-5.08-.28-10.17-.35-15.25l2.45,2.4c-2.93,0-5.86,0-8.79-.07l2.39-2.5c.45,11.29-.17,27.53-.5,39-.42,13-.77,25.91-.9,38.87l-.53-.54c3.31.06,6.62,0,9.93.08l-.46.46c.06-11.31.2-26.95.16-38.07-.23-9.68,1.23-26.11,12.88-28.45a11.79,11.79,0,0,1,4.62.27s.14,0,0,0a.23.23,0,0,0-.18.13Z"/><path class="cls-45" d="M267.78,121,247,84.31l3.8.18L246,92.68l.39-1.34.93,29.23.1,3.31c-2.38.09-10.93.33-13.45.42l-3.92.13c.55-10.78.72-21.59.71-32.37,0-9.5-.14-19-.37-28.5a103.47,103.47,0,0,0-1-14.25c-.65-4.75-1.49-9.5-1.69-14.26-.31-10,.75-20.38,5.14-29.6.49-.3,10.33-5,11.08-5.45l6.55,6.55c-6.53,3-6.78,6-6.54,9a261.67,261.67,0,0,0,1.64,27c1.21,12,2.17,24,4.41,36l-6.06-6.06h.22l-5.41,3.34c1.8-3.31,3.62-6.24,5.52-9.27C248.63,59.6,258.11,45,262.63,38c6.46.2,17.51.52,23.95.75-3.38,4-26.68,31.44-30.64,36.09L281.28,120l1,1.83c-.82,0-13.3-.83-14.53-.86Zm.52-.85,12-.74-1,1.71L255.94,74.8,273.6,40.38l3.69,6.9-12.1.37,4.11-2.32C263,57,253.38,72.52,248,84.43l-11.37.34,1.17-6.28c3-17.95,4.59-35.89,5.83-53.95.11-3,.2-6,.21-9,.24-3,0-6-6.54-9l6.56,6.55-9.93-4.88,1.66-1.67c3.93,9,4.93,18.85,4.63,28.5-.58,9.48-2.93,19-2.71,28.51-.45,19-.65,38,.15,57l-3.73-3.74,9.93.31-3.43,3.43.93-29.23,0-.81.37-.53,5.39-7.87,2.22-3.24c6.27,13.58,12.39,27.17,18.94,41.25Z"/><path class="cls-45" d="M304.22,21c.33,5.26-3.87,11.73-9.89,10.78-9.14-1-8.95-20.56.13-21.64,6-.95,10,5.77,9.76,10.86Zm-7.3.09c-.06-2.22-.16-4.06-1.18-5.76-1.2-1.91-4.05-1.37-5.34.37a8.85,8.85,0,0,0-.09,10.5c1.34,1.87,4.05,2.24,5.39.38,1.09-1.61,1.21-3.35,1.22-5.49Z"/><path class="cls-45" d="M289,120.92A521.32,521.32,0,0,1,285.35,63c0-8.08-.06-16.2.06-24.26,5.89.08,12.1.08,18,.24-.16,11.5-.57,31.17-.94,42.68-.45,13-1,25.92-1.82,38.87l-.08,1.27c-3.92-.17-8-.62-11.53-.92Zm.71-.71c3.47-.27,6.64-.67,9.69-.86l-1.22,1.22c-.82-12.95-1.36-25.91-1.81-38.87-.32-9.67-.76-29.18-.88-38.86l3.91,3.91c-3.35.07-6.7.07-10.05.11l4-4a625,625,0,0,1-3.66,77.37Z"/><path class="cls-45" d="M352.71,120.92l-.14-37.49c-.06-6.18.31-12.42-1.06-18.47-1-4.26-2.91-9-7.16-10.83a10.43,10.43,0,0,0-12.05,3.06c-4.07,4.53-5.75,10.87-5.67,16.88v47h-11c-.39-13.24-1.35-46-1.73-58.81-.27-7.36-.51-14.71-1.32-22,2-.13,9.84-.71,12-.85l3.94.45c-.27,1.63-2.53,13.85-2.87,15.79l-.5-.47h.23l-.47.33C326.88,45,336.78,36,348,38.28c11.4,2.16,17.34,14.42,18.81,24.69a80.34,80.34,0,0,1,.87,14.87c-.23,14.33-1.05,28.64-4,42.72l-.09.5c-3.6,0-7.24,0-10.81-.14Zm.71-.71c3.27-.09,6.46-.15,9.69-.14l-.5.49c-3-14.08-3.79-28.39-4-42.72A105.16,105.16,0,0,0,358,64.31c-1.06-9.05-5.36-20.19-15.8-20.16-7.23.2-12.74,5.43-16.35,11.71l-.2.35-.27,0h-.65l-.07-.48L321.11,43l3.42,3.28-8.9-.64s2.79-3,2.79-2.93c.29,11.33-.37,27.53-.69,39l-1.14,38.87-.5-.5h10l-.5.5V83.37c.11-3.33-.23-10.8.28-14a24.37,24.37,0,0,1,5.65-12.86c3.16-3.72,8.64-5.37,13.19-3.3s6.68,7,7.74,11.53c1.38,6.1,1,12.39,1.07,18.57l-.14,36.9Z"/><path class="cls-45" d="M382.59,136.47a9.51,9.51,0,0,1,2.07,1.18c10.29,6.19,24.1,5.56,27.37-7.89,1.92-7,1.13-15.29.89-22.52l3.83,3.83h-.23l3.54-2.33c-2.58,6.82-8,13.07-15.37,15.19a22.37,22.37,0,0,1-21.63-5.56c-14.91-14.32-15.75-42-9.11-60.51a38.77,38.77,0,0,1,10.21-15.72c13.64-12.34,32.55-6.56,38.45,10.53l-5.06-3.52h.23l-5.4,5.19c.16-3.33.66-13.64.81-16.87l19.22.21c-.77,18.85-1.21,41.13-1.58,60-.32,12.41,0,25.17-3.76,37.27-5.19,18-22.39,25.58-39.52,18.76A23.25,23.25,0,0,1,379,148c1.06-3.87,2.44-7.8,3.6-11.54Zm.3.95c-.61,3.61-1,7.05-1.58,10.54l-.32-1.07a22.09,22.09,0,0,0,7.61,3.94c9.23,2.82,20.77,1.17,26.87-6.57,6.3-8,6.86-18.45,7.13-28.41-.08-17.31-.92-37.36-.93-54.75l.16-18.47L427,48.05l-8.78.09,5.29-5.09c-.1,3.68-.41,13.39-.51,16.88l-5.24,0h-.23l-3.69,0c-2.5-7.28-6.17-14.23-15-13.27-8,1.37-12.87,9.75-15.24,17-3.87,13.11-4.2,28.77,1.8,41.28,4.33,9.43,14.49,14.68,23,7,2.46-2.17,4.24-5.65,5.7-8.72l6.54.26c-.09,2.4-.36,9.07-.45,11.55-.17,14.37-5.68,32-23.4,29.44A25.18,25.18,0,0,1,383.13,138c-.17-.15-.1-.3-.24-.61Z"/><path class="cls-46" d="M416.64,73.51a28.29,28.29,0,0,0-.57-6.42c-1.83-8.19-6.74-14.93-14-14.93-9.59,0-16.44,11.4-16.44,29.38,0,15.26,5.48,27.95,16.32,27.95,6.17,0,11.76-5.46,13.93-14.46a34,34,0,0,0,.8-7.54Z"/></g></g></g></svg>